<svg width="60" height="28" viewBox="0 0 60 28" fill="none" xmlns="http://www.w3.org/2000/svg">
<g filter="url(#filter0_i_17944_175155)">
<path d="M48.8584 27.0031C48.7786 27.5496 48.3385 28 47.7862 28H8.21378C7.66149 28 7.22144 27.5496 7.14156 27.0031C6.69033 23.9163 4.17435 21.4763 0.997478 21.0488C0.450126 20.9752 0 20.5345 0 19.9823V8.01774C0 7.46546 0.449766 7.02471 0.997032 6.95042C2.54187 6.74072 3.98529 6.0476 5.10091 4.96229C6.20997 3.88338 6.92061 2.48932 7.14071 0.99648C7.22127 0.450103 7.66149 0 8.21378 0H47.7862C48.3385 0 48.7786 0.45039 48.8584 0.996867C49.3097 4.08372 51.8256 6.52373 55.0025 6.9512C55.5499 7.02485 56 7.46546 56 8.01774V19.9823C56 20.5345 55.5499 20.9752 55.0025 21.0488C51.8256 21.4763 49.3097 23.9163 48.8584 27.0031Z" fill="#D44100"/>
</g>
<ellipse cx="0.996856" cy="0.996855" rx="0.996856" ry="0.996855" transform="matrix(1 0 0.00214847 0.999998 28 8)" fill="#F6F6F6"/>
<ellipse cx="0.996856" cy="0.996855" rx="0.996856" ry="0.996855" transform="matrix(1 0 0.00214842 0.999998 28 13.4256)" fill="#F6F6F6"/>
<ellipse cx="0.996856" cy="0.996855" rx="0.996856" ry="0.996855" transform="matrix(1 0 0.00315442 0.999995 28 18.8408)" fill="#F6F6F6"/>
<path d="M18 10.5359C20.6667 12.0755 22 12.8453 22 14C22 15.1547 20.6667 15.9245 18 17.4641C15.3333 19.0037 14 19.7735 13 19.1962C12 18.6188 12 17.0792 12 14C12 10.9208 12 9.3812 13 8.80385C14 8.2265 15.3333 8.9963 18 10.5359Z" fill="#F6F6F6"/>
<circle cx="48" cy="14" r="11" fill="white" stroke="url(#paint0_linear_17944_175155)" stroke-width="1.4"/>
<path d="M44.5281 19C44.5374 18.748 44.5421 18.3747 44.5421 17.88C44.5421 16.3773 44.4628 15.0193 44.3041 13.806C44.0988 12.2847 43.7488 10.9547 43.2541 9.816L44.8081 8.878C45.3868 10.054 45.7834 11.608 45.9981 13.54C46.1101 14.66 46.1661 15.906 46.1661 17.278C46.1661 17.6607 46.1568 18.2347 46.1381 19H44.5281ZM48.6533 19C48.6626 18.748 48.6673 18.3747 48.6673 17.88C48.6673 16.3773 48.588 15.0193 48.4293 13.806C48.224 12.2847 47.874 10.9547 47.3793 9.816L48.9333 8.878C49.0546 9.13 49.1993 9.47533 49.3673 9.914C49.5353 10.3527 49.68 10.684 49.8013 10.908C49.9226 11.1227 50.086 11.3 50.2913 11.44C50.506 11.5707 50.786 11.636 51.1313 11.636C52.0273 11.636 52.4753 11.0527 52.4753 9.886C52.4753 9.67133 52.4613 9.438 52.4333 9.186L53.9033 8.892C53.9873 9.29333 54.0293 9.69933 54.0293 10.11C54.0293 10.7633 53.922 11.3653 53.7073 11.916C53.4926 12.4573 53.166 12.896 52.7273 13.232C52.298 13.5587 51.7753 13.722 51.1593 13.722C50.7953 13.722 50.45 13.6473 50.1233 13.498V13.54C50.2353 14.66 50.2913 15.906 50.2913 17.278C50.2913 17.6607 50.282 18.2347 50.2633 19H48.6533Z" fill="#D44100"/>
<defs>
<filter id="filter0_i_17944_175155" x="0" y="0" width="60" height="32" filterUnits="userSpaceOnUse" color-interpolation-filters="sRGB">
<feFlood flood-opacity="0" result="BackgroundImageFix"/>
<feBlend mode="normal" in="SourceGraphic" in2="BackgroundImageFix" result="shape"/>
<feColorMatrix in="SourceAlpha" type="matrix" values="0 0 0 0 0 0 0 0 0 0 0 0 0 0 0 0 0 0 127 0" result="hardAlpha"/>
<feOffset dx="4" dy="4"/>
<feGaussianBlur stdDeviation="4.5"/>
<feComposite in2="hardAlpha" operator="arithmetic" k2="-1" k3="1"/>
<feColorMatrix type="matrix" values="0 0 0 0 0.968627 0 0 0 0 0.537255 0 0 0 0 0.14902 0 0 0 1 0"/>
<feBlend mode="normal" in2="shape" result="effect1_innerShadow_17944_175155"/>
</filter>
<linearGradient id="paint0_linear_17944_175155" x1="59" y1="14" x2="37" y2="14" gradientUnits="userSpaceOnUse">
<stop stop-color="#FFA058"/>
<stop offset="0.485537" stop-color="#ED751B"/>
<stop offset="1" stop-color="#D44100"/>
</linearGradient>
</defs>
</svg>
