<svg width="60" height="28" viewBox="0 0 60 28" fill="none" xmlns="http://www.w3.org/2000/svg">
<g filter="url(#filter0_i_17940_174778)">
<path d="M48.8584 27.0031C48.7786 27.5496 48.3385 28 47.7862 28H8.21378C7.66149 28 7.22144 27.5496 7.14156 27.0031C6.69033 23.9163 4.17435 21.4763 0.997478 21.0488C0.450126 20.9752 0 20.5345 0 19.9823V8.01774C0 7.46546 0.449766 7.02471 0.997032 6.95042C2.54187 6.74072 3.98529 6.0476 5.10091 4.96229C6.20997 3.88338 6.92061 2.48932 7.14071 0.99648C7.22127 0.450103 7.66149 0 8.21378 0H47.7862C48.3385 0 48.7786 0.45039 48.8584 0.996867C49.3097 4.08372 51.8256 6.52373 55.0025 6.9512C55.5499 7.02485 56 7.46546 56 8.01774V19.9823C56 20.5345 55.5499 20.9752 55.0025 21.0488C51.8256 21.4763 49.3097 23.9163 48.8584 27.0031Z" fill="#F78926"/>
</g>
<circle cx="48" cy="14" r="11" fill="white" stroke="url(#paint0_linear_17940_174778)" stroke-width="1.4"/>
<path d="M49.5982 9.966C49.6729 10.7033 49.7802 11.2353 49.9202 11.562C50.0602 11.8887 50.2609 12.052 50.5222 12.052C50.6902 12.052 50.8209 11.9633 50.9142 11.786C51.0169 11.6087 51.0682 11.352 51.0682 11.016C51.0682 10.68 51.0122 10.274 50.9002 9.798L52.3282 9.322C52.4962 9.938 52.5802 10.5307 52.5802 11.1C52.5802 11.968 52.3936 12.682 52.0202 13.242C51.6562 13.7927 51.1616 14.068 50.5362 14.068C49.9296 14.068 49.4162 13.7367 48.9962 13.074C48.8002 13.438 48.5622 13.7227 48.2822 13.928C48.0022 14.124 47.6942 14.222 47.3582 14.222C47.0409 14.222 46.7469 14.166 46.4762 14.054C46.5882 15.174 46.6442 16.4153 46.6442 17.778C46.6442 18.1607 46.6349 18.7347 46.6162 19.5H45.0062C45.0156 19.248 45.0202 18.8747 45.0202 18.38C45.0202 16.8773 44.9409 15.5193 44.7822 14.306C44.5769 12.7847 44.2269 11.4547 43.7322 10.316L45.2862 9.378C45.4356 9.67667 45.5756 10.008 45.7062 10.372C45.9582 11.0253 46.1822 11.4873 46.3782 11.758C46.5836 12.0193 46.8636 12.15 47.2182 12.15C47.5076 12.15 47.7456 12.0193 47.9322 11.758C48.1189 11.4967 48.2122 11.114 48.2122 10.61C48.2122 10.4607 48.2076 10.344 48.1982 10.26V10.204L49.5982 9.966Z" fill="#F78926"/>
<ellipse cx="0.996856" cy="0.996855" rx="0.996856" ry="0.996855" transform="matrix(1 0 0.00214847 0.999998 28 8)" fill="#F6F6F6"/>
<ellipse cx="0.996856" cy="0.996855" rx="0.996856" ry="0.996855" transform="matrix(1 0 0.00214842 0.999998 28 13.4256)" fill="#F6F6F6"/>
<ellipse cx="0.996856" cy="0.996855" rx="0.996856" ry="0.996855" transform="matrix(1 0 0.00315442 0.999995 28 18.8408)" fill="#F6F6F6"/>
<path d="M18 10.5359C20.6667 12.0755 22 12.8453 22 14C22 15.1547 20.6667 15.9245 18 17.4641C15.3333 19.0037 14 19.7735 13 19.1962C12 18.6188 12 17.0792 12 14C12 10.9208 12 9.3812 13 8.80385C14 8.2265 15.3333 8.9963 18 10.5359Z" fill="#F6F6F6"/>
<defs>
<filter id="filter0_i_17940_174778" x="0" y="0" width="60" height="32" filterUnits="userSpaceOnUse" color-interpolation-filters="sRGB">
<feFlood flood-opacity="0" result="BackgroundImageFix"/>
<feBlend mode="normal" in="SourceGraphic" in2="BackgroundImageFix" result="shape"/>
<feColorMatrix in="SourceAlpha" type="matrix" values="0 0 0 0 0 0 0 0 0 0 0 0 0 0 0 0 0 0 127 0" result="hardAlpha"/>
<feOffset dx="4" dy="4"/>
<feGaussianBlur stdDeviation="4.5"/>
<feComposite in2="hardAlpha" operator="arithmetic" k2="-1" k3="1"/>
<feColorMatrix type="matrix" values="0 0 0 0 1 0 0 0 0 0.796078 0 0 0 0 0.282353 0 0 0 1 0"/>
<feBlend mode="normal" in2="shape" result="effect1_innerShadow_17940_174778"/>
</filter>
<linearGradient id="paint0_linear_17940_174778" x1="59" y1="14" x2="37" y2="14" gradientUnits="userSpaceOnUse">
<stop stop-color="#FFD68C"/>
<stop offset="0.485537" stop-color="#FDB93F"/>
<stop offset="1" stop-color="#F78926"/>
</linearGradient>
</defs>
</svg>
