<svg width="60" height="28" viewBox="0 0 60 28" fill="none" xmlns="http://www.w3.org/2000/svg">
<g filter="url(#filter0_i_17940_174975)">
<path d="M48.8584 27.0031C48.7786 27.5496 48.3385 28 47.7862 28H8.21378C7.66149 28 7.22144 27.5496 7.14156 27.0031C6.69033 23.9163 4.17435 21.4763 0.997478 21.0488C0.450126 20.9752 0 20.5345 0 19.9823V8.01774C0 7.46546 0.449766 7.02471 0.997032 6.95042C2.54187 6.74072 3.98529 6.0476 5.10091 4.96229C6.20997 3.88338 6.92061 2.48932 7.14071 0.99648C7.22127 0.450103 7.66149 0 8.21378 0H47.7862C48.3385 0 48.7786 0.45039 48.8584 0.996867C49.3097 4.08372 51.8256 6.52373 55.0025 6.9512C55.5499 7.02485 56 7.46546 56 8.01774V19.9823C56 20.5345 55.5499 20.9752 55.0025 21.0488C51.8256 21.4763 49.3097 23.9163 48.8584 27.0031Z" fill="#F4682A"/>
</g>
<ellipse cx="0.996856" cy="0.996855" rx="0.996856" ry="0.996855" transform="matrix(1 0 0.00214847 0.999998 28 8)" fill="#F6F6F6"/>
<ellipse cx="0.996856" cy="0.996855" rx="0.996856" ry="0.996855" transform="matrix(1 0 0.00214842 0.999998 28 13.4256)" fill="#F6F6F6"/>
<ellipse cx="0.996856" cy="0.996855" rx="0.996856" ry="0.996855" transform="matrix(1 0 0.00315442 0.999995 28 18.8408)" fill="#F6F6F6"/>
<path d="M18 10.5359C20.6667 12.0755 22 12.8453 22 14C22 15.1547 20.6667 15.9245 18 17.4641C15.3333 19.0037 14 19.7735 13 19.1962C12 18.6188 12 17.0792 12 14C12 10.9208 12 9.3812 13 8.80385C14 8.2265 15.3333 8.9963 18 10.5359Z" fill="#F6F6F6"/>
<circle cx="48" cy="14" r="11" fill="white" stroke="url(#paint0_linear_17940_174975)" stroke-width="1.4"/>
<path d="M44.753 18.65C45.2197 17.2407 45.971 15.99 47.007 14.898C46.5217 14.646 46.139 14.2773 45.859 13.792C45.5884 13.2973 45.453 12.77 45.453 12.21C45.453 11.7247 45.5557 11.2487 45.761 10.782C45.9757 10.306 46.2977 9.89533 46.727 9.55C47.1564 9.20467 47.679 8.98533 48.295 8.892C48.4444 8.87333 48.561 8.864 48.645 8.864C49.037 8.864 49.4384 8.94333 49.849 9.102C50.2597 9.26067 50.5864 9.438 50.829 9.634L50.143 11.062C49.7697 10.9033 49.3777 10.824 48.967 10.824C48.7617 10.824 48.603 10.8333 48.491 10.852C48.0244 10.908 47.651 11.076 47.371 11.356C47.1004 11.6267 46.9697 11.9113 46.979 12.21C46.979 12.4247 47.105 12.6207 47.357 12.798C47.6184 12.966 47.9544 13.05 48.365 13.05C48.8317 13.05 49.3217 12.9287 49.835 12.686C50.3297 12.406 50.8104 12.1727 51.277 11.986L51.641 14.044C50.549 14.4547 49.499 15.1173 48.491 16.032C47.483 16.9373 46.713 18.0433 46.181 19.35L44.753 18.65Z" fill="#F4682A"/>
<defs>
<filter id="filter0_i_17940_174975" x="0" y="0" width="60" height="32" filterUnits="userSpaceOnUse" color-interpolation-filters="sRGB">
<feFlood flood-opacity="0" result="BackgroundImageFix"/>
<feBlend mode="normal" in="SourceGraphic" in2="BackgroundImageFix" result="shape"/>
<feColorMatrix in="SourceAlpha" type="matrix" values="0 0 0 0 0 0 0 0 0 0 0 0 0 0 0 0 0 0 127 0" result="hardAlpha"/>
<feOffset dx="4" dy="4"/>
<feGaussianBlur stdDeviation="4.5"/>
<feComposite in2="hardAlpha" operator="arithmetic" k2="-1" k3="1"/>
<feColorMatrix type="matrix" values="0 0 0 0 1 0 0 0 0 0.666667 0 0 0 0 0.231373 0 0 0 1 0"/>
<feBlend mode="normal" in2="shape" result="effect1_innerShadow_17940_174975"/>
</filter>
<linearGradient id="paint0_linear_17940_174975" x1="59" y1="14" x2="37" y2="14" gradientUnits="userSpaceOnUse">
<stop stop-color="#FFBF82"/>
<stop offset="0.485537" stop-color="#FC9736"/>
<stop offset="1" stop-color="#F4682A"/>
</linearGradient>
</defs>
</svg>
